<?xml version="1.0" encoding="UTF-8" standalone="no"?>
<!-- Created with Inkscape (http://www.inkscape.org/) -->

<svg
   width="450"
   height="450"
   viewBox="0 0 119.0625 119.0625"
   version="1.1"
   id="svg5"
   inkscape:version="1.2.2 (732a01da63, 2022-12-09)"
   sodipodi:docname="inflated.svg"
   xmlns:inkscape="http://www.inkscape.org/namespaces/inkscape"
   xmlns:sodipodi="http://sodipodi.sourceforge.net/DTD/sodipodi-0.dtd"
   xmlns="http://www.w3.org/2000/svg"
   xmlns:svg="http://www.w3.org/2000/svg">
  <sodipodi:namedview
     id="namedview7"
     pagecolor="#ffffff"
     bordercolor="#000000"
     borderopacity="0.25"
     inkscape:showpageshadow="2"
     inkscape:pageopacity="0.0"
     inkscape:pagecheckerboard="0"
     inkscape:deskcolor="#d1d1d1"
     inkscape:document-units="mm"
     showgrid="false"
     inkscape:zoom="1.5393939"
     inkscape:cx="172.14567"
     inkscape:cy="252.04724"
     inkscape:window-width="1920"
     inkscape:window-height="1051"
     inkscape:window-x="-9"
     inkscape:window-y="-9"
     inkscape:window-maximized="1"
     inkscape:current-layer="layer1" />
  <defs
     id="defs2" />
  <g
     inkscape:label="Layer 1"
     inkscape:groupmode="layer"
     id="layer1">
    <path
       id="path2197"
       style="fill:#d40000;fill-opacity:1;stroke-width:0.264583"
       d="m 60.328124,101.23437 -10.3125,13.40625 h 20.109375 z m 0,4.05728 c -40.218749,-69.520258 -20.109375,-34.760122 0,0 z M 100.54688,51.989098 c 0,-27.402875 -18.121978,-49.6172926 -40.476568,-49.6172885 -22.354588,0 -40.476562,22.2144165 -40.476562,49.6172885 1e-6,27.402872 11.590725,37.661573 40.992187,53.270412 C 86.893652,89.982778 100.54688,79.391973 100.54688,51.989098 Z" />
    <path
       style="fill:#d40000;fill-opacity:1;stroke-width:0.264583"
       d="m 31.453124,32.828124 c 0,0 -15.984374,34.890625 12.546875,53.109375 C 72.53125,104.15625 22,51.390623 31.453124,32.828124 Z"
       id="path2201" />
    <path
       style="fill:#ffffff;fill-opacity:1;stroke-width:0.264583"
       d="m 28.015626,33.171876 c 0,0 -10.828126,38.671872 7.906249,50.359373 18.734373,11.6875 -18.37399,-11.29324 -7.906249,-50.359373 z"
       id="path2542" />
  </g>
  <g
     inkscape:groupmode="layer"
     id="layer2"
     inkscape:label="Layer 2" />
</svg>
